<svg viewBox="0 0 1024 1024" version="1.1" xmlns="http://www.w3.org/2000/svg">
    <path d="M684.032 154.563765V85.714824c0-38.008471-33.129412-68.848941-74.089412-68.848942H387.433412c-40.96 0-74.149647 30.840471-74.149647 68.848942v68.848941H16.805647v68.848941h111.194353v688.368941c0 38.068706 33.249882 68.848941 74.089412 68.848941h593.136941c40.96 0 74.149647-30.780235 74.149647-68.848941V223.472941h111.194353V154.563765h-296.538353zM387.493647 85.714824h222.388706v68.848941H387.493647V85.714824z m407.732706 826.066823H202.149647V223.472941h593.076706v688.368941z m-481.882353-585.125647h74.149647v481.882353H313.344v-481.882353z m148.299294 0h74.089412v481.882353h-74.089412v-481.882353z m148.239059 0h74.089412v481.882353h-74.089412v-481.882353z" fill="#000000"></path>
</svg>